<?xml version="1.0" encoding="UTF-8" standalone="no"?>
<!DOCTYPE svg PUBLIC "-//W3C//DTD SVG 1.1//EN"
 "http://www.w3.org/Graphics/SVG/1.1/DTD/svg11.dtd">
<!-- Generated by graphviz version 2.40.1 (20161225.0304)
 -->
<!-- Title: UmlClassDiagram Pages: 1 -->
<svg width="398pt" height="321pt"
 viewBox="0.00 0.00 398.31 321.20" xmlns="http://www.w3.org/2000/svg" xmlns:xlink="http://www.w3.org/1999/xlink">
<g id="graph0" class="graph" transform="scale(1 1) rotate(0) translate(4 317.2)">
<title>UmlClassDiagram</title>
<polygon fill="#ffffff" stroke="transparent" points="-4,4 -4,-317.2 394.3146,-317.2 394.3146,4 -4,4"/>
<!-- 0 -->
<g id="node1" class="node">
<title>0</title>
<polygon fill="#f2f2f2" stroke="#000000" points="255.4513,-238.3 255.4513,-312.7 323.5369,-312.7 323.5369,-238.3 255.4513,-238.3"/>
<text text-anchor="middle" x="289.4941" y="-296.1" font-family="Times,serif" font-size="14.00" fill="#000000">Resource</text>
<polyline fill="none" stroke="#000000" points="255.4513,-287.9 323.5369,-287.9 "/>
<text text-anchor="middle" x="289.4941" y="-271.3" font-family="Times,serif" font-size="14.00" fill="#000000"> </text>
<polyline fill="none" stroke="#000000" points="255.4513,-263.1 323.5369,-263.1 "/>
<text text-anchor="middle" x="289.4941" y="-246.5" font-family="Times,serif" font-size="14.00" fill="#000000"> </text>
</g>
<!-- 0struct0 -->
<g id="node2" class="node">
<title>0struct0</title>
<polygon fill="#f2f2f2" stroke="#000000" points="0,-.5 0,-201.3 244.9882,-201.3 244.9882,-.5 0,-.5"/>
<text text-anchor="middle" x="122.4941" y="-184.7" font-family="Times,serif" font-size="14.00" fill="#000000">&lt;&lt;struct&gt;&gt;</text>
<text text-anchor="middle" x="122.4941" y="-167.9" font-family="Times,serif" font-size="14.00" fill="#000000">Resource</text>
<polyline fill="none" stroke="#000000" points="0,-159.7 244.9882,-159.7 "/>
<text text-anchor="start" x="8" y="-143.1" font-family="Times,serif" font-size="14.00" fill="#000000">resourceId: uint256</text>
<text text-anchor="start" x="8" y="-126.3" font-family="Times,serif" font-size="14.00" fill="#000000">resourceName: string</text>
<text text-anchor="start" x="8" y="-109.5" font-family="Times,serif" font-size="14.00" fill="#000000">loanable: bool</text>
<text text-anchor="start" x="8" y="-92.7" font-family="Times,serif" font-size="14.00" fill="#000000">loanInterval: uint256</text>
<text text-anchor="start" x="8" y="-75.9" font-family="Times,serif" font-size="14.00" fill="#000000">resourceElectricityCostPerHour: uint256</text>
<text text-anchor="start" x="8" y="-59.1" font-family="Times,serif" font-size="14.00" fill="#000000">resourceCosts: uint256</text>
<text text-anchor="start" x="8" y="-42.3" font-family="Times,serif" font-size="14.00" fill="#000000">computingPower: uint256</text>
<text text-anchor="start" x="8" y="-25.5" font-family="Times,serif" font-size="14.00" fill="#000000">buyOut: bool</text>
<text text-anchor="start" x="8" y="-8.7" font-family="Times,serif" font-size="14.00" fill="#000000">appraisedValue: uint256</text>
</g>
<!-- 0struct0&#45;&gt;0 -->
<g id="edge1" class="edge">
<title>0struct0&#45;&gt;0</title>
<path fill="none" stroke="#000000" d="M218.6711,-201.4539C228.4593,-211.6876 238.0096,-221.6725 246.7669,-230.8284"/>
<polygon fill="#000000" stroke="#000000" points="246.9449,-231.0144 253.9828,-232.5856 255.2394,-239.6864 248.2015,-238.1152 246.9449,-231.0144"/>
</g>
<!-- 1 -->
<g id="node3" class="node">
<title>1</title>
<polygon fill="#f2f2f2" stroke="#000000" points="262.4941,-63.7 262.4941,-138.1 316.4941,-138.1 316.4941,-63.7 262.4941,-63.7"/>
<text text-anchor="middle" x="289.1077" y="-121.5" font-family="Times,serif" font-size="14.00" fill="#000000">Room</text>
<polyline fill="none" stroke="#000000" points="262.4941,-113.3 315.7213,-113.3 "/>
<text text-anchor="middle" x="289.1077" y="-96.7" font-family="Times,serif" font-size="14.00" fill="#000000"> </text>
<polyline fill="none" stroke="#000000" points="262.4941,-88.5 315.7213,-88.5 "/>
<text text-anchor="middle" x="289.1077" y="-71.9" font-family="Times,serif" font-size="14.00" fill="#000000"> </text>
</g>
<!-- 1&#45;&gt;0 -->
<g id="edge2" class="edge">
<title>1&#45;&gt;0</title>
<path fill="none" stroke="#000000" d="M289.4941,-138.3561C289.4941,-158.6093 289.4941,-184.2452 289.4941,-207.8573"/>
<polygon fill="none" stroke="#000000" points="278.9942,-208.1058 289.4941,-238.1059 299.9942,-208.1059 278.9942,-208.1058"/>
</g>
<!-- 2 -->
<g id="node4" class="node">
<title>2</title>
<polygon fill="#f2f2f2" stroke="#000000" points="334.6736,-63.7 334.6736,-138.1 390.3146,-138.1 390.3146,-63.7 334.6736,-63.7"/>
<text text-anchor="middle" x="362.4941" y="-121.5" font-family="Times,serif" font-size="14.00" fill="#000000">Device</text>
<polyline fill="none" stroke="#000000" points="334.6736,-113.3 390.3146,-113.3 "/>
<text text-anchor="middle" x="362.4941" y="-96.7" font-family="Times,serif" font-size="14.00" fill="#000000"> </text>
<polyline fill="none" stroke="#000000" points="334.6736,-88.5 390.3146,-88.5 "/>
<text text-anchor="middle" x="362.4941" y="-71.9" font-family="Times,serif" font-size="14.00" fill="#000000"> </text>
</g>
<!-- 2&#45;&gt;0 -->
<g id="edge3" class="edge">
<title>2&#45;&gt;0</title>
<path fill="none" stroke="#000000" d="M349.8634,-138.158C343.0965,-157.3546 334.3465,-181.0318 325.4941,-201.8 324.2635,-204.687 322.978,-207.6232 321.6561,-210.5787"/>
<polygon fill="none" stroke="#000000" points="312.037,-206.3594 308.749,-237.9734 331.034,-215.31 312.037,-206.3594"/>
</g>
</g>
</svg>
