<?xml version="1.0" encoding="UTF-8" standalone="no"?>
<!DOCTYPE svg PUBLIC "-//W3C//DTD SVG 1.1//EN"
 "http://www.w3.org/Graphics/SVG/1.1/DTD/svg11.dtd">
<!-- Generated by graphviz version 2.40.1 (20161225.0304)
 -->
<!-- Title: UmlClassDiagram Pages: 1 -->
<svg width="136pt" height="212pt"
 viewBox="0.00 0.00 135.82 211.60" xmlns="http://www.w3.org/2000/svg" xmlns:xlink="http://www.w3.org/1999/xlink">
<g id="graph0" class="graph" transform="scale(1 1) rotate(0) translate(4 207.6)">
<title>UmlClassDiagram</title>
<polygon fill="#ffffff" stroke="transparent" points="-4,4 -4,-207.6 131.8205,-207.6 131.8205,4 -4,4"/>
<!-- 0 -->
<g id="node1" class="node">
<title>0</title>
<polygon fill="#f2f2f2" stroke="#000000" points="6.4137,-111.9 6.4137,-203.1 119.5863,-203.1 119.5863,-111.9 6.4137,-111.9"/>
<text text-anchor="middle" x="63" y="-186.5" font-family="Times,serif" font-size="14.00" fill="#000000">Resource</text>
<polyline fill="none" stroke="#000000" points="6.4137,-178.3 119.5863,-178.3 "/>
<text text-anchor="middle" x="63" y="-161.7" font-family="Times,serif" font-size="14.00" fill="#000000"> </text>
<polyline fill="none" stroke="#000000" points="6.4137,-153.5 119.5863,-153.5 "/>
<text text-anchor="start" x="14.4137" y="-136.9" font-family="Times,serif" font-size="14.00" fill="#000000">Public:</text>
<text text-anchor="start" x="14.4137" y="-120.1" font-family="Times,serif" font-size="14.00" fill="#000000"> &#160;&#160;&#160;rentResource()</text>
</g>
<!-- 1 -->
<g id="node2" class="node">
<title>1</title>
<polygon fill="#f2f2f2" stroke="#000000" points="0,-.5 0,-74.9 54,-74.9 54,-.5 0,-.5"/>
<text text-anchor="middle" x="26.6136" y="-58.3" font-family="Times,serif" font-size="14.00" fill="#000000">Room</text>
<polyline fill="none" stroke="#000000" points="0,-50.1 53.2272,-50.1 "/>
<text text-anchor="middle" x="26.6136" y="-33.5" font-family="Times,serif" font-size="14.00" fill="#000000"> </text>
<polyline fill="none" stroke="#000000" points="0,-25.3 53.2272,-25.3 "/>
<text text-anchor="middle" x="26.6136" y="-8.7" font-family="Times,serif" font-size="14.00" fill="#000000"> </text>
</g>
<!-- 1&#45;&gt;0 -->
<g id="edge1" class="edge">
<title>1&#45;&gt;0</title>
<path fill="none" stroke="#000000" d="M38.1933,-74.9488C38.9883,-77.5943 39.804,-80.3089 40.6329,-83.0673"/>
<polygon fill="none" stroke="#000000" points="30.5889,-86.1286 49.2784,-111.8376 50.7005,-80.085 30.5889,-86.1286"/>
</g>
<!-- 2 -->
<g id="node3" class="node">
<title>2</title>
<polygon fill="#f2f2f2" stroke="#000000" points="72.1795,-.5 72.1795,-74.9 127.8205,-74.9 127.8205,-.5 72.1795,-.5"/>
<text text-anchor="middle" x="100" y="-58.3" font-family="Times,serif" font-size="14.00" fill="#000000">Device</text>
<polyline fill="none" stroke="#000000" points="72.1795,-50.1 127.8205,-50.1 "/>
<text text-anchor="middle" x="100" y="-33.5" font-family="Times,serif" font-size="14.00" fill="#000000"> </text>
<polyline fill="none" stroke="#000000" points="72.1795,-25.3 127.8205,-25.3 "/>
<text text-anchor="middle" x="100" y="-8.7" font-family="Times,serif" font-size="14.00" fill="#000000"> </text>
</g>
<!-- 2&#45;&gt;0 -->
<g id="edge2" class="edge">
<title>2&#45;&gt;0</title>
<path fill="none" stroke="#000000" d="M88.4958,-74.9488C87.6787,-77.5943 86.8403,-80.3089 85.9884,-83.0673"/>
<polygon fill="none" stroke="#000000" points="75.9232,-80.0751 77.1027,-111.8376 95.9881,-86.2721 75.9232,-80.0751"/>
</g>
</g>
</svg>
