<?xml version="1.0" encoding="UTF-8" standalone="no"?>
<!DOCTYPE svg PUBLIC "-//W3C//DTD SVG 1.1//EN"
 "http://www.w3.org/Graphics/SVG/1.1/DTD/svg11.dtd">
<!-- Generated by graphviz version 2.40.1 (20161225.0304)
 -->
<!-- Title: UmlClassDiagram Pages: 1 -->
<svg width="748pt" height="338pt"
 viewBox="0.00 0.00 748.06 338.00" xmlns="http://www.w3.org/2000/svg" xmlns:xlink="http://www.w3.org/1999/xlink">
<g id="graph0" class="graph" transform="scale(1 1) rotate(0) translate(4 334)">
<title>UmlClassDiagram</title>
<polygon fill="#ffffff" stroke="transparent" points="-4,4 -4,-334 744.0618,-334 744.0618,4 -4,4"/>
<!-- 0 -->
<g id="node1" class="node">
<title>0</title>
<polygon fill="#f2f2f2" stroke="#000000" points="0,-154.3 0,-329.5 740.0618,-329.5 740.0618,-154.3 0,-154.3"/>
<text text-anchor="middle" x="370.0309" y="-312.9" font-family="Times,serif" font-size="14.00" fill="#000000">ResourceRentalBackendOracle</text>
<polyline fill="none" stroke="#000000" points="0,-304.7 740.0618,-304.7 "/>
<text text-anchor="start" x="8" y="-288.1" font-family="Times,serif" font-size="14.00" fill="#000000">Public:</text>
<text text-anchor="start" x="8" y="-271.3" font-family="Times,serif" font-size="14.00" fill="#000000"> &#160;&#160;backendAddress: address</text>
<text text-anchor="start" x="8" y="-254.5" font-family="Times,serif" font-size="14.00" fill="#000000"> &#160;&#160;bookingCount: uint256</text>
<polyline fill="none" stroke="#000000" points="0,-246.3 740.0618,-246.3 "/>
<text text-anchor="start" x="8" y="-229.7" font-family="Times,serif" font-size="14.00" fill="#000000">Public:</text>
<text text-anchor="start" x="8" y="-212.9" font-family="Times,serif" font-size="14.00" fill="#000000"> &#160;&#160;&#160;&lt;&lt;event&gt;&gt; NewResourceBooking(bookingId: uint256, resourceId: uint256, startTimestamp: uint256, endTimestamp: uint256)</text>
<text text-anchor="start" x="8" y="-196.1" font-family="Times,serif" font-size="14.00" fill="#000000"> &#160;&#160;&#160;&lt;&lt;modifier&gt;&gt; isBackend()</text>
<text text-anchor="start" x="8" y="-179.3" font-family="Times,serif" font-size="14.00" fill="#000000"> &#160;&#160;&#160;constructor()</text>
<text text-anchor="start" x="8" y="-162.5" font-family="Times,serif" font-size="14.00" fill="#000000"> &#160;&#160;&#160;createResourceBooking(_resourceId: uint256, _startTimestamp: uint256, _endTimestamp: uint256)</text>
</g>
<!-- 0struct0 -->
<g id="node2" class="node">
<title>0struct0</title>
<polygon fill="#f2f2f2" stroke="#000000" points="293.4001,-.5 293.4001,-117.3 446.6617,-117.3 446.6617,-.5 293.4001,-.5"/>
<text text-anchor="middle" x="370.0309" y="-100.7" font-family="Times,serif" font-size="14.00" fill="#000000">&lt;&lt;struct&gt;&gt;</text>
<text text-anchor="middle" x="370.0309" y="-83.9" font-family="Times,serif" font-size="14.00" fill="#000000">Booking</text>
<polyline fill="none" stroke="#000000" points="293.4001,-75.7 446.6617,-75.7 "/>
<text text-anchor="start" x="301.4001" y="-59.1" font-family="Times,serif" font-size="14.00" fill="#000000">bookingId: uint256</text>
<text text-anchor="start" x="301.4001" y="-42.3" font-family="Times,serif" font-size="14.00" fill="#000000">resourceId: uint256</text>
<text text-anchor="start" x="301.4001" y="-25.5" font-family="Times,serif" font-size="14.00" fill="#000000">startTimestamp: uint256</text>
<text text-anchor="start" x="301.4001" y="-8.7" font-family="Times,serif" font-size="14.00" fill="#000000">endTimestamp: uint256</text>
</g>
<!-- 0struct0&#45;&gt;0 -->
<g id="edge1" class="edge">
<title>0struct0&#45;&gt;0</title>
<path fill="none" stroke="#000000" d="M370.0309,-117.3055C370.0309,-125.1768 370.0309,-133.4257 370.0309,-141.7712"/>
<polygon fill="#000000" stroke="#000000" points="370.031,-142.0348 374.0309,-148.0348 370.0309,-154.0348 366.0309,-148.0348 370.031,-142.0348"/>
</g>
</g>
</svg>
